<?xml version="1.0" encoding="UTF-8" standalone="no"?>
<!-- Created with Inkscape (http://www.inkscape.org/) -->

<svg
   xmlns:dc="http://purl.org/dc/elements/1.1/"
   xmlns:cc="http://creativecommons.org/ns#"
   xmlns:rdf="http://www.w3.org/1999/02/22-rdf-syntax-ns#"
   xmlns:svg="http://www.w3.org/2000/svg"
   xmlns="http://www.w3.org/2000/svg"
   xmlns:xlink="http://www.w3.org/1999/xlink"
   xmlns:sodipodi="http://sodipodi.sourceforge.net/DTD/sodipodi-0.dtd"
   xmlns:inkscape="http://www.inkscape.org/namespaces/inkscape"
   width="210mm"
   height="297mm"
   viewBox="0 0 744.09448819 1052.3622047"
   id="svg4275"
   version="1.1"
   inkscape:version="0.91 r13725"
   sodipodi:docname="lantern.svg">
  <defs
     id="defs4277">
    <linearGradient
       inkscape:collect="always"
       id="linearGradient4897">
      <stop
         style="stop-color:#d4edff;stop-opacity:1"
         offset="0"
         id="stop4899" />
      <stop
         style="stop-color:#c1f5ff;stop-opacity:0"
         offset="1"
         id="stop4901" />
    </linearGradient>
    <linearGradient
       inkscape:collect="always"
       xlink:href="#linearGradient4897"
       id="linearGradient4903"
       x1="330.85681"
       y1="588.24359"
       x2="631.8446"
       y2="512.42224"
       gradientUnits="userSpaceOnUse"
       spreadMethod="reflect"
       gradientTransform="translate(2.2976168,9.1904674)" />
    <filter
       style="color-interpolation-filters:sRGB;"
       inkscape:label="Drop Shadow"
       id="filter5684">
      <feFlood
         flood-opacity="0.227451"
         flood-color="rgb(213,43,225)"
         result="flood"
         id="feFlood5686" />
      <feComposite
         in="flood"
         in2="SourceGraphic"
         operator="in"
         result="composite1"
         id="feComposite5688" />
      <feGaussianBlur
         in="composite1"
         stdDeviation="8.3"
         result="blur"
         id="feGaussianBlur5690" />
      <feOffset
         dx="0"
         dy="39.8"
         result="offset"
         id="feOffset5692" />
      <feComposite
         in="SourceGraphic"
         in2="offset"
         operator="over"
         result="composite2"
         id="feComposite5694" />
    </filter>
    <linearGradient
       inkscape:collect="always"
       xlink:href="#linearGradient4897"
       id="linearGradient6316"
       gradientUnits="userSpaceOnUse"
       gradientTransform="translate(2.2976168,9.1904674)"
       spreadMethod="reflect"
       x1="330.85681"
       y1="588.24359"
       x2="631.8446"
       y2="512.42224" />
    <filter
       style="color-interpolation-filters:sRGB"
       inkscape:label="Drop Shadow"
       id="filter5684-3">
      <feFlood
         flood-opacity="0.227451"
         flood-color="rgb(213,43,225)"
         result="flood"
         id="feFlood5686-2" />
      <feComposite
         in="flood"
         in2="SourceGraphic"
         operator="in"
         result="composite1"
         id="feComposite5688-9" />
      <feGaussianBlur
         in="composite1"
         stdDeviation="8.3"
         result="blur"
         id="feGaussianBlur5690-4" />
      <feOffset
         dx="0"
         dy="39.8"
         result="offset"
         id="feOffset5692-7" />
      <feComposite
         in="SourceGraphic"
         in2="offset"
         operator="over"
         result="composite2"
         id="feComposite5694-0" />
    </filter>
  </defs>
  <sodipodi:namedview
     id="base"
     pagecolor="#ffffff"
     bordercolor="#666666"
     borderopacity="1.0"
     inkscape:pageopacity="0.0"
     inkscape:pageshadow="2"
     inkscape:zoom="0.43523358"
     inkscape:cx="585.87091"
     inkscape:cy="607.01044"
     inkscape:document-units="px"
     inkscape:current-layer="layer2"
     showgrid="false"
     inkscape:window-width="1366"
     inkscape:window-height="745"
     inkscape:window-x="-8"
     inkscape:window-y="-8"
     inkscape:window-maximized="1"
     showguides="false"
     inkscape:snap-bbox="true"
     inkscape:bbox-paths="true" />
  <metadata
     id="metadata4280">
    <rdf:RDF>
      <cc:Work
         rdf:about="">
        <dc:format>image/svg+xml</dc:format>
        <dc:type
           rdf:resource="http://purl.org/dc/dcmitype/StillImage" />
        <dc:title></dc:title>
      </cc:Work>
    </rdf:RDF>
  </metadata>
  <g
     inkscape:groupmode="layer"
     id="layer2"
     inkscape:label="Trace">
    <path
       style="fill:url(#linearGradient4903);fill-opacity:1;filter:url(#filter5684)"
       d="M 327.85817,81.022498 C 254.91149,81.120355 169.44021,90.52343 169.4402,181.5518 c 0,112.03491 245.08544,229.08548 202.85742,332.85742 -17.26462,42.4264 202.85742,-220.82251 202.85742,-332.85742 0,-112.034906 -125.46556,-99.583623 -200,-100.000005 -14.29553,-0.07986 -30.46303,-0.551879 -47.29687,-0.529297 z m 36.63867,387.906252 c -12.88174,-1.58013 -203.13672,233.27419 -203.13672,337.43164 0,112.0349 125.46556,99.58362 200,100 76.24284,0.42593 205.71288,12.03491 205.71289,-100 0,-112.03491 -245.08544,-229.08548 -202.85742,-332.85742 1.21392,-2.98311 1.2555,-4.45471 0.28125,-4.57422 z"
       id="path4853"
       inkscape:connector-curvature="0"
       inkscape:export-filename="C:\Users\Uday Kiran\Desktop\path48531.png"
       inkscape:export-xdpi="89.900002"
       inkscape:export-ydpi="89.900002" />
    <path
       style="fill:url(#linearGradient6316);fill-opacity:1;filter:url(#filter5684)"
       d="M 327.85742 81.023438 C 254.91074 81.121295 169.43946 90.524368 169.43945 181.55273 C 169.43945 293.58764 414.5249 410.63822 372.29688 514.41016 C 355.03226 556.83656 575.1543 293.58764 575.1543 181.55273 C 575.1543 69.517832 449.68874 81.969116 375.1543 81.552734 C 360.85877 81.472874 344.69126 81.000855 327.85742 81.023438 z M 364.49609 468.92969 C 351.61435 467.34956 161.35936 702.20388 161.35938 806.36133 C 161.35938 918.39623 286.82494 905.94495 361.35938 906.36133 C 437.60222 906.78726 567.07226 918.39624 567.07227 806.36133 C 567.07227 694.32642 321.98682 577.27585 364.21484 473.50391 C 365.42876 470.5208 365.47034 469.0492 364.49609 468.92969 z "
       id="path5702" />
    <rect
       style="fill:#47bfd7;fill-opacity:0"
       id="rect5754"
       width="1022.4395"
       height="445.73767"
       x="-174.61888"
       y="517.01746"
       ry="2.5253799" />
    <rect
       ry="0.50507581"
       y="983.43372"
       x="2.9100443e-005"
       height="68.928474"
       width="749.02307"
       id="rect6455"
       style="opacity:1;fill:#932a5d;fill-opacity:1" />
  </g>
  <g
     inkscape:groupmode="layer"
     id="layer3"
     inkscape:label="Trace 1">
    <path
       id="path6409"
       d="M 327.85742 81.023438 C 254.91074 81.121295 169.43946 90.524368 169.43945 181.55273 C 169.43945 293.58764 414.5249 410.63822 372.29688 514.41016 C 355.03226 556.83656 575.1543 293.58764 575.1543 181.55273 C 575.1543 69.517832 449.68874 81.969116 375.1543 81.552734 C 360.85877 81.472874 344.69126 81.000855 327.85742 81.023438 z M 364.49609 468.92969 C 351.61435 467.34956 161.35936 702.20388 161.35938 806.36133 C 161.35938 918.39623 286.82494 905.94495 361.35938 906.36133 C 437.60222 906.78726 567.07226 918.39624 567.07227 806.36133 C 567.07227 694.32642 321.98682 577.27585 364.21484 473.50391 C 365.42876 470.5208 365.47034 469.0492 364.49609 468.92969 z "
       style="fill:url(#linearGradient6316);fill-opacity:1;filter:url(#filter5684);opacity:0.812" />
  </g>
</svg>
